<?xml version="1.0" standalone="no"?>
<!DOCTYPE svg PUBLIC "-//W3C//DTD SVG 20010904//EN"
 "http://www.w3.org/TR/2001/REC-SVG-20010904/DTD/svg10.dtd">
<svg version="1.0" xmlns="http://www.w3.org/2000/svg"
 width="141.000000pt" height="141.000000pt" viewBox="0 0 141.000000 141.000000"
 preserveAspectRatio="xMidYMid meet">
<metadata>
Created by potrace 1.14, written by Peter Selinger 2001-2017
</metadata>
<g transform="translate(0.000000,141.000000) scale(0.100000,-0.100000)"
fill="#000000" stroke="none">
<path d="M615 1394 c-229 -50 -316 -130 -306 -280 0 -12 18 -41 40 -65 38 -43
40 -44 106 -46 78 -2 116 12 239 87 92 55 219 116 285 136 25 7 74 11 117 9
82 -4 82 -6 4 57 -125 100 -313 140 -485 102z"/>
<path d="M150 1142 c-23 -31 -58 -89 -76 -129 -128 -272 -57 -486 164 -498
119 -6 235 54 485 253 164 132 244 186 337 231 69 33 82 36 167 36 89 0 92 1
79 20 -52 78 -203 102 -353 57 -45 -14 -106 -46 -182 -96 -128 -84 -208 -116
-302 -118 -95 -3 -135 8 -181 50 -49 45 -77 106 -85 187 -3 33 -6 61 -8 62 -1
2 -21 -23 -45 -55z"/>
<path d="M1145 923 c-104 -29 -206 -97 -439 -292 -155 -130 -205 -163 -303
-195 -98 -32 -241 -24 -324 20 -17 8 -33 14 -35 11 -2 -2 15 -42 38 -88 59
-119 179 -238 298 -296 47 -23 101 -45 121 -48 l37 -7 -14 53 c-35 132 21 251
148 315 49 25 174 58 259 68 161 21 341 96 407 171 84 96 75 232 -19 281 -41
21 -114 24 -174 7z"/>
<path d="M1303 481 c-71 -44 -214 -92 -356 -121 -230 -46 -273 -65 -306 -134
-34 -69 -19 -135 42 -179 127 -93 356 -37 523 129 56 55 81 90 112 155 22 46
43 100 47 119 4 19 9 43 11 53 7 24 -3 21 -73 -22z"/>
</g>
</svg>
